<?xml version="1.0" standalone="no"?>
<!DOCTYPE svg PUBLIC "-//W3C//DTD SVG 20010904//EN"
 "http://www.w3.org/TR/2001/REC-SVG-20010904/DTD/svg10.dtd">
<svg version="1.0" xmlns="http://www.w3.org/2000/svg"
 width="640.000000pt" height="640.000000pt" viewBox="0 0 640.000000 640.000000"
 preserveAspectRatio="xMidYMid meet">
<metadata>
Created by potrace 1.14, written by Peter Selinger 2001-2017
</metadata>
<g transform="translate(0.000000,640.000000) scale(0.100000,-0.100000)"
fill="#000000" stroke="none">
<path d="M685 5769 c-75 -13 -90 -17 -140 -34 -72 -24 -157 -79 -218 -138 -54
-53 -117 -137 -117 -156 0 -6 -4 -11 -8 -11 -9 0 -46 -108 -61 -178 -8 -40 -7
-187 3 -262 6 -46 16 -134 21 -190 3 -25 7 -61 10 -80 3 -19 7 -64 10 -99 3
-35 8 -77 11 -95 3 -17 7 -53 10 -81 2 -27 6 -68 8 -90 15 -119 20 -164 30
-273 4 -34 7 -66 8 -70 1 -4 -22 -56 -51 -117 -29 -60 -56 -119 -61 -130 -12
-26 -56 -158 -71 -215 -7 -25 -14 -49 -15 -55 -7 -25 -15 -63 -20 -95 -3 -19
-7 -42 -10 -50 -25 -87 -25 -529 0 -600 2 -8 7 -33 10 -55 7 -54 13 -78 32
-144 9 -31 17 -63 19 -71 12 -64 164 -399 199 -440 7 -8 16 -22 20 -30 12 -25
30 -54 59 -91 15 -20 27 -41 27 -47 0 -7 4 -12 8 -12 5 0 28 -27 52 -60 24
-33 47 -60 52 -60 4 0 8 -5 8 -11 0 -13 247 -261 315 -316 86 -69 236 -180
264 -194 14 -8 28 -17 31 -20 13 -16 218 -132 340 -192 112 -54 346 -153 385
-162 5 -1 22 -7 36 -13 22 -9 51 -18 124 -38 6 -2 51 -15 100 -29 50 -14 106
-28 125 -31 19 -3 43 -10 53 -15 9 -5 17 -8 17 -5 0 3 15 0 33 -5 17 -5 52
-12 76 -15 25 -3 47 -7 51 -9 5 -3 63 -13 115 -20 11 -1 45 -6 75 -10 30 -4
69 -9 85 -10 17 -2 71 -7 120 -12 112 -10 582 -10 690 0 108 10 154 15 195 22
19 3 55 8 80 10 25 3 56 7 70 10 14 3 36 8 50 10 120 23 184 37 235 50 33 8
71 18 85 21 232 49 674 231 920 380 55 33 243 157 260 172 8 7 56 45 105 84
107 84 297 274 380 378 33 41 62 77 65 80 3 3 10 12 15 21 6 9 31 48 57 86 25
38 56 87 69 109 30 54 119 232 119 240 0 3 6 20 14 37 27 60 77 225 92 302 2
11 6 31 9 45 24 112 30 185 29 350 0 171 -9 275 -30 370 -3 14 -8 36 -11 50
-20 111 -84 294 -150 430 -25 52 -46 104 -46 115 1 29 12 163 18 210 3 22 8
65 10 95 3 30 7 71 9 90 2 19 7 64 10 100 4 36 9 81 12 100 3 19 7 62 10 95
11 130 13 160 14 160 1 0 3 14 5 30 2 17 6 57 10 90 32 279 -16 451 -168 608
-154 159 -388 226 -598 172 -53 -14 -205 -76 -256 -104 -10 -6 -43 -21 -73
-34 -30 -14 -86 -39 -125 -57 -38 -18 -113 -51 -165 -75 -95 -43 -183 -84
-337 -156 -46 -22 -88 -39 -95 -39 -7 0 -51 12 -98 26 -47 14 -98 28 -113 30
-16 2 -33 7 -39 10 -6 4 -21 8 -32 10 -12 2 -73 14 -136 28 -63 13 -140 27
-170 31 -30 4 -64 9 -75 11 -18 4 -39 6 -145 19 -217 25 -634 24 -865 -2 -27
-3 -67 -6 -87 -7 -21 0 -38 -5 -38 -9 0 -5 -3 -6 -8 -3 -4 2 -28 1 -52 -4 -25
-4 -63 -11 -85 -14 -77 -11 -346 -70 -375 -83 -8 -3 -25 -8 -37 -10 -12 -2
-41 -10 -64 -18 -56 -20 -59 -20 -132 15 -35 17 -69 30 -75 30 -7 0 -12 5 -12
10 0 6 -4 10 -10 10 -10 0 -52 19 -218 96 -52 24 -95 44 -97 44 -2 0 -41 17
-87 39 -186 87 -241 112 -373 171 -100 45 -237 65 -330 49z m370 -949 c28 -12
82 -37 120 -55 39 -18 120 -55 180 -83 61 -27 135 -61 165 -75 30 -14 90 -41
133 -61 73 -33 147 -79 191 -118 11 -10 22 -18 25 -18 11 0 64 18 211 70 266
94 452 137 760 175 218 27 582 22 808 -10 17 -3 49 -7 70 -10 191 -28 396 -81
617 -160 214 -77 184 -75 262 -17 37 27 124 76 193 107 69 32 159 73 200 92
41 19 125 57 185 85 61 27 143 65 183 84 41 19 75 34 77 34 2 0 2 -8 0 -18 -2
-10 -6 -49 -10 -87 -3 -39 -8 -81 -10 -95 -2 -14 -7 -54 -9 -90 -6 -70 -13
-139 -21 -210 -3 -25 -8 -72 -11 -105 -3 -33 -7 -76 -10 -95 -13 -110 -18
-173 -18 -235 0 -134 7 -163 68 -262 99 -162 152 -308 173 -473 13 -103 5
-343 -13 -372 -3 -5 -7 -21 -10 -36 -8 -44 -34 -123 -64 -187 -15 -33 -30 -67
-34 -75 -25 -56 -125 -202 -186 -274 -48 -56 -146 -152 -210 -206 -36 -30 -67
-57 -70 -60 -3 -3 -18 -14 -35 -26 -16 -11 -52 -36 -80 -55 -88 -61 -349 -207
-385 -215 -7 -1 -59 -22 -95 -39 -35 -16 -173 -65 -195 -70 -8 -2 -35 -10 -60
-18 -57 -19 -292 -75 -345 -82 -22 -3 -50 -8 -62 -10 -22 -5 -81 -13 -143 -20
-240 -26 -584 -27 -795 -1 -129 16 -141 18 -269 42 -16 3 -56 12 -90 20 -34 8
-68 16 -76 18 -8 2 -42 11 -75 20 -33 9 -67 18 -75 21 -133 33 -456 176 -592
262 -21 12 -42 23 -48 23 -5 0 -10 4 -10 8 0 5 -10 13 -22 19 -84 39 -336 257
-441 383 -128 152 -233 356 -273 529 -9 36 -18 75 -21 86 -12 51 -10 257 3
337 25 156 99 350 174 458 59 86 86 220 69 345 -8 58 -17 146 -25 230 -1 22
-5 56 -8 75 -3 19 -8 64 -11 100 -4 36 -9 76 -10 90 -2 14 -6 52 -9 85 -3 33
-8 74 -11 90 -2 17 -7 63 -11 103 -6 70 -5 73 12 64 11 -5 42 -20 69 -32z"/>
</g>
</svg>
