<svg xmlns="http://www.w3.org/2000/svg" width="102.518" height="102.518" viewBox="0 0 102.518 102.518">
  <path id="iconmonstr-instagram-11" d="M51.259,9.239c13.686,0,15.309.051,20.717.3,13.891.632,20.38,7.223,21.012,21.012.248,5.4.295,7.027.295,20.713s-.051,15.309-.295,20.713c-.636,13.776-7.108,20.38-21.012,21.012-5.408.248-7.022.3-20.717.3s-15.309-.051-20.713-.3c-13.925-.636-20.38-7.257-21.012-21.016-.248-5.4-.3-7.022-.3-20.713s.056-15.305.3-20.713c.636-13.784,7.108-20.38,21.012-21.012,5.408-.243,7.027-.295,20.713-.295Zm0-9.239C37.338,0,35.595.06,30.127.308,11.512,1.162,1.166,11.491.312,30.123.06,35.595,0,37.338,0,51.259S.06,66.927.308,72.395c.854,18.615,11.183,28.961,29.816,29.816,5.472.248,7.215.308,21.136.308s15.668-.06,21.136-.308c18.6-.854,28.97-11.183,29.811-29.816.252-5.468.312-7.215.312-21.136s-.06-15.664-.308-21.131C101.373,11.529,91.031,1.166,72.4.312,66.927.06,65.18,0,51.259,0Zm0,24.937A26.324,26.324,0,1,0,77.58,51.259,26.322,26.322,0,0,0,51.259,24.937Zm0,43.408A17.086,17.086,0,1,1,68.345,51.259,17.084,17.084,0,0,1,51.259,68.345Zm27.364-50.6A6.151,6.151,0,1,0,84.769,23.9,6.154,6.154,0,0,0,78.622,17.748Z" fill="#fff"/>
</svg>
