<svg xmlns="http://www.w3.org/2000/svg" width="102.518" height="83.313" viewBox="0 0 102.518 83.313">
  <path id="iconmonstr-twitter-1" d="M102.518,12.111a41.992,41.992,0,0,1-12.08,3.31A21.067,21.067,0,0,0,99.686,3.786a42.133,42.133,0,0,1-13.357,5.1A21.046,21.046,0,0,0,50.486,28.07,59.709,59.709,0,0,1,7.138,6.1a21.06,21.06,0,0,0,6.506,28.081,20.943,20.943,0,0,1-9.521-2.631A21.048,21.048,0,0,0,20.99,52.435a21.081,21.081,0,0,1-9.5.359A21.048,21.048,0,0,0,31.14,67.4,42.289,42.289,0,0,1,0,76.112a59.542,59.542,0,0,0,32.242,9.449C71.292,85.561,93.355,52.58,92.022,23a42.821,42.821,0,0,0,10.5-10.888Z" transform="translate(0 -2.248)" fill="#fff"/>
</svg>
