<svg xmlns="http://www.w3.org/2000/svg" width="89.703" height="102.518" viewBox="0 0 89.703 102.518">
  <path id="iconmonstr-discord-1" d="M80.195,0A10.533,10.533,0,0,1,90.7,10.559v91.958L79.682,92.778l-6.2-5.741-6.561-6.1,2.717,9.483H11.508A10.533,10.533,0,0,1,1,79.861v-69.3A10.533,10.533,0,0,1,11.508,0H80.195ZM60.409,66.944c11.328-.359,15.685-7.791,15.685-7.791a68.643,68.643,0,0,0-7.381-29.884c-7.381-5.536-14.4-5.382-14.4-5.382l-.718.82c8.714,2.665,12.763,6.51,12.763,6.51A41.784,41.784,0,0,0,50.926,26.3a43.371,43.371,0,0,0-10.354.1l-.871.1A38.493,38.493,0,0,0,28.065,29.73c-1.9.871-3.024,1.487-3.024,1.487s4.254-4.049,13.481-6.715l-.513-.615s-7.022-.154-14.4,5.382a68.643,68.643,0,0,0-7.381,29.884s4.306,7.433,15.634,7.791c0,0,1.9-2.307,3.434-4.254-6.51-1.948-8.97-6.049-8.97-6.049l1.435.871.205.154.2.115.06.026.2.115a30.04,30.04,0,0,0,3.742,1.743,43.029,43.029,0,0,0,7.535,2.2,35.908,35.908,0,0,0,13.276.051,33.738,33.738,0,0,0,7.433-2.2A29.332,29.332,0,0,0,66.3,56.692s-2.563,4.2-9.278,6.1C58.564,64.74,60.409,66.944,60.409,66.944ZM36.574,43.006a5.71,5.71,0,0,0,0,11.379A5.461,5.461,0,0,0,41.8,48.7,5.428,5.428,0,0,0,36.574,43.006Zm18.709,0a5.71,5.71,0,1,0,5.228,5.69A5.461,5.461,0,0,0,55.283,43.006Z" transform="translate(-1)" fill="#fff" fill-rule="evenodd"/>
</svg>
