<svg xmlns="http://www.w3.org/2000/svg" width="102.52" height="85.431" viewBox="0 0 102.52 85.431">
  <path id="telegram-1" d="M78.53,87.488a5.08,5.08,0,0,0,4.729.619,4.956,4.956,0,0,0,3.093-3.588c3.712-17.445,12.716-61.6,16.1-77.469a3.335,3.335,0,0,0-1.111-3.238,3.42,3.42,0,0,0-3.4-.6C80.021,9.844,24.862,30.539,2.316,38.882a3.513,3.513,0,0,0,.218,6.676c10.111,3.024,23.383,7.232,23.383,7.232s6.2,18.731,9.436,28.256a3.743,3.743,0,0,0,2.576,2.46,3.7,3.7,0,0,0,3.464-.884L54.618,70.137S69.876,81.324,78.53,87.488ZM31.5,50.423l7.172,23.656L40.265,59.1S67.975,34.106,83.771,19.86a1.185,1.185,0,0,0,.141-1.61,1.214,1.214,0,0,0-1.606-.273L31.5,50.423Z" transform="translate(0 -3)" fill="#fff" fill-rule="evenodd"/>
</svg>
