<svg xmlns="http://www.w3.org/2000/svg" width="102.518" height="81.386" viewBox="0 0 102.518 81.386">
  <path id="iconmonstr-medium-1" d="M12.157,19.6a3.966,3.966,0,0,0-1.294-3.349L1.294,4.721V3H31.016L53.988,53.383,74.184,3h28.333V4.721l-8.184,7.847a2.4,2.4,0,0,0-.91,2.3V72.524a2.394,2.394,0,0,0,.91,2.294l7.992,7.847v1.721h-40.2V82.665L70.4,74.626c.812-.812.812-1.051.812-2.294v-46.6L48.2,84.2h-3.11l-26.8-58.469V64.916a5.407,5.407,0,0,0,1.482,4.494L30.533,82.473V84.2H0V82.473L10.769,69.41a5.206,5.206,0,0,0,1.388-4.494V19.6Z" transform="translate(0 -3)" fill="#fff" fill-rule="evenodd"/>
</svg>
