<svg xmlns="http://www.w3.org/2000/svg" width="39.921" height="32.191" viewBox="0 0 39.921 32.191">
  <path id="Path_7" data-name="Path 7" d="M33.826,9.731a1.02,1.02,0,0,1,.013-.373l.754-7.3A1.427,1.427,0,0,0,32.578.631L25.894,3.7a.509.509,0,0,0-.049.031,22.882,22.882,0,0,0-7.885-1.365A22.893,22.893,0,0,0,10.075,3.73a.509.509,0,0,0-.049-.031L3.343.631A1.427,1.427,0,0,0,1.328,2.061l.8,7.249c.013.123.072.353-.031.422a9.79,9.79,0,0,0-1.6,5.28c0,6.983,7.819,12.643,17.461,12.643s17.461-5.661,17.461-12.643A9.79,9.79,0,0,0,33.826,9.731Z" transform="translate(2 2.037)" fill="none" stroke="#f04784" stroke-width="5"/>
</svg>
